<svg xmlns="http://www.w3.org/2000/svg" width="286.7" height="68.253" viewBox="0 0 286.7 68.253">
  <g id="Group_179" data-name="Group 179" transform="translate(-71.96 -69.373)">
    <path id="Path_505" data-name="Path 505" d="M1.08.413V-10.015H4.172a6.485,6.485,0,0,1,1.6.149,2.9,2.9,0,0,1,1.316.747A4.309,4.309,0,0,1,8.148-7.337,8.023,8.023,0,0,1,8.5-4.858a8.393,8.393,0,0,1-.239,2.105,5.511,5.511,0,0,1-.612,1.519,3.556,3.556,0,0,1-.817.946A3.1,3.1,0,0,1,5.76.235,5.3,5.3,0,0,1,4.318.413ZM2.268-.818H4.184A4.042,4.042,0,0,0,5.576-1.01a1.952,1.952,0,0,0,.805-.541A3.441,3.441,0,0,0,7.04-2.87a7.427,7.427,0,0,0,.236-2.009,5.508,5.508,0,0,0-.462-2.514A2.484,2.484,0,0,0,5.69-8.571a4.041,4.041,0,0,0-1.537-.213H2.268Zm12.3-1.2,1.139.164a3.312,3.312,0,0,1-1,1.8,2.716,2.716,0,0,1-1.861.64A2.77,2.77,0,0,1,10.587-.437,4.4,4.4,0,0,1,9.751-3.3,4.615,4.615,0,0,1,10.6-6.259a2.68,2.68,0,0,1,2.192-1.053,2.607,2.607,0,0,1,2.13,1.031,4.532,4.532,0,0,1,.826,2.9q0,.114-.006.341H10.89A3.186,3.186,0,0,0,11.5-1.131a1.692,1.692,0,0,0,1.359.661,1.53,1.53,0,0,0,1.035-.37A2.5,2.5,0,0,0,14.569-2.02ZM10.951-4.09h3.63a2.833,2.833,0,0,0-.416-1.43,1.607,1.607,0,0,0-1.365-.74,1.631,1.631,0,0,0-1.276.59A2.535,2.535,0,0,0,10.951-4.09Zm8.071,4.5L16.549-7.141h1.163l1.4,4.524q.227.733.416,1.522.147-.6.41-1.437l1.445-4.609h1.133L20.051.413ZM28.061-2.02l1.139.164a3.312,3.312,0,0,1-1,1.8,2.716,2.716,0,0,1-1.861.64A2.77,2.77,0,0,1,24.079-.437,4.4,4.4,0,0,1,23.243-3.3a4.615,4.615,0,0,1,.845-2.959A2.68,2.68,0,0,1,26.28-7.312,2.607,2.607,0,0,1,28.41-6.28a4.532,4.532,0,0,1,.826,2.9q0,.114-.006.341H24.382a3.186,3.186,0,0,0,.606,1.906,1.692,1.692,0,0,0,1.359.661,1.53,1.53,0,0,0,1.035-.37A2.5,2.5,0,0,0,28.061-2.02ZM24.443-4.09h3.63a2.833,2.833,0,0,0-.416-1.43,1.607,1.607,0,0,0-1.365-.74,1.631,1.631,0,0,0-1.276.59A2.535,2.535,0,0,0,24.443-4.09Zm6.241,4.5V-10.015h1.1V.413Zm2.525-3.777a4.25,4.25,0,0,1,1-3.108,2.781,2.781,0,0,1,2.045-.839A2.723,2.723,0,0,1,38.45-6.291a4.275,4.275,0,0,1,.851,2.82,5.7,5.7,0,0,1-.376,2.294,2.931,2.931,0,0,1-1.1,1.3,2.847,2.847,0,0,1-1.57.462A2.726,2.726,0,0,1,34.051-.434,4.488,4.488,0,0,1,33.209-3.364Zm1.133,0a3.588,3.588,0,0,0,.545,2.173,1.655,1.655,0,0,0,1.371.722,1.647,1.647,0,0,0,1.365-.726,3.677,3.677,0,0,0,.545-2.212A3.475,3.475,0,0,0,37.62-5.53a1.652,1.652,0,0,0-1.362-.722,1.657,1.657,0,0,0-1.371.718A3.571,3.571,0,0,0,34.342-3.364Zm6.376,6.672V-7.141h1v.982a2.663,2.663,0,0,1,.8-.864,1.958,1.958,0,0,1,1.084-.288,2.318,2.318,0,0,1,1.469.5,3.019,3.019,0,0,1,.961,1.4,5.864,5.864,0,0,1,.324,1.988A5.762,5.762,0,0,1,46-1.333,3.057,3.057,0,0,1,44.963.089a2.41,2.41,0,0,1-1.436.494,1.843,1.843,0,0,1-.989-.27,2.361,2.361,0,0,1-.719-.683V3.308Zm1-6.629a3.678,3.678,0,0,0,.508,2.155,1.489,1.489,0,0,0,1.23.7,1.525,1.525,0,0,0,1.258-.722,3.835,3.835,0,0,0,.523-2.237,3.736,3.736,0,0,0-.511-2.162A1.478,1.478,0,0,0,43.5-6.309a1.532,1.532,0,0,0-1.246.765A3.824,3.824,0,0,0,41.715-3.321Zm6.1,3.734V-7.141H48.8v1.06a2.507,2.507,0,0,1,.814-.893,2.042,2.042,0,0,1,1.157-.338,1.914,1.914,0,0,1,1.185.349,1.851,1.851,0,0,1,.652.974,2.286,2.286,0,0,1,2.008-1.323,1.83,1.83,0,0,1,1.488.622,2.948,2.948,0,0,1,.52,1.917V.413h-1.1V-4.346a4.041,4.041,0,0,0-.107-1.106A1.051,1.051,0,0,0,55.033-6a1.089,1.089,0,0,0-.661-.206,1.435,1.435,0,0,0-1.139.53,2.588,2.588,0,0,0-.453,1.7V.413h-1.1V-4.5a2.434,2.434,0,0,0-.269-1.28.963.963,0,0,0-.882-.427,1.441,1.441,0,0,0-.86.285,1.592,1.592,0,0,0-.572.832,5.393,5.393,0,0,0-.178,1.579V.413ZM62.835-2.02l1.139.164a3.312,3.312,0,0,1-1,1.8,2.716,2.716,0,0,1-1.861.64A2.77,2.77,0,0,1,58.853-.437,4.4,4.4,0,0,1,58.017-3.3a4.615,4.615,0,0,1,.845-2.959,2.68,2.68,0,0,1,2.192-1.053,2.607,2.607,0,0,1,2.13,1.031,4.532,4.532,0,0,1,.826,2.9q0,.114-.006.341H59.156a3.186,3.186,0,0,0,.606,1.906,1.692,1.692,0,0,0,1.359.661,1.53,1.53,0,0,0,1.035-.37A2.5,2.5,0,0,0,62.835-2.02ZM59.217-4.09h3.63a2.833,2.833,0,0,0-.416-1.43,1.607,1.607,0,0,0-1.365-.74,1.631,1.631,0,0,0-1.276.59A2.535,2.535,0,0,0,59.217-4.09Zm6.265,4.5V-7.141h.992v1.074a2.264,2.264,0,0,1,2.069-1.245,2.39,2.39,0,0,1,1.08.245,1.754,1.754,0,0,1,.738.644,2.7,2.7,0,0,1,.343.946,8.5,8.5,0,0,1,.061,1.245V.413h-1.1V-4.182a3.971,3.971,0,0,0-.129-1.17,1.2,1.2,0,0,0-.456-.619,1.3,1.3,0,0,0-.768-.231,1.647,1.647,0,0,0-1.215.519,2.838,2.838,0,0,0-.511,1.97V.413Zm9.5-1.145L75.146.4a3.545,3.545,0,0,1-.833.114,1.668,1.668,0,0,1-.93-.22,1.183,1.183,0,0,1-.465-.58A5.288,5.288,0,0,1,72.783-1.8V-6.145h-.808v-1h.808V-9.012l1.1-.768v2.639h1.108v1H73.878v4.417a2.575,2.575,0,0,0,.058.7.516.516,0,0,0,.19.249.65.65,0,0,0,.376.092A3.1,3.1,0,0,0,74.986-.732ZM78.261.413l3.447-10.427h1.279L86.66.413H85.307L84.261-2.745H80.508L79.522.413Zm2.589-4.282h3.043l-.937-2.888q-.429-1.316-.637-2.162a14.994,14.994,0,0,1-.484,1.992ZM87.6-8.542v-1.472h1.1v1.472Zm0,8.955V-7.141h1.1V.413Zm7.123,0V-.54A1.967,1.967,0,0,1,92.9.583a2.3,2.3,0,0,1-1.429-.5,3.2,3.2,0,0,1-1.01-1.391,5.48,5.48,0,0,1-.358-2.052,6.145,6.145,0,0,1,.324-2.052A2.933,2.933,0,0,1,91.4-6.821a2.346,2.346,0,0,1,1.451-.491,1.928,1.928,0,0,1,1.047.288,2.324,2.324,0,0,1,.747.75v-3.741h1.1V.413Zm-3.483-3.77a3.666,3.666,0,0,0,.526,2.169,1.521,1.521,0,0,0,1.243.718,1.487,1.487,0,0,0,1.227-.686,3.537,3.537,0,0,0,.505-2.095,3.986,3.986,0,0,0-.514-2.276,1.515,1.515,0,0,0-1.267-.726,1.461,1.461,0,0,0-1.227.7A3.861,3.861,0,0,0,91.239-3.357ZM101.474.413V-6.145H100.5v-1h.973v-.8a4.057,4.057,0,0,1,.116-1.131,1.615,1.615,0,0,1,.56-.807,1.8,1.8,0,0,1,1.123-.309,4.672,4.672,0,0,1,1.028.128l-.165,1.117a3.2,3.2,0,0,0-.649-.071.881.881,0,0,0-.71.249,1.511,1.511,0,0,0-.208.932v.7h1.267v1H102.57V.413Zm3.333,0V-7.141h.992V-6a3.1,3.1,0,0,1,.7-1.06,1.109,1.109,0,0,1,.707-.256,1.945,1.945,0,0,1,1.133.413l-.38,1.188a1.42,1.42,0,0,0-.808-.277.958.958,0,0,0-.649.253,1.391,1.391,0,0,0-.41.7,5.74,5.74,0,0,0-.184,1.494V.413Zm3.9-3.777a4.25,4.25,0,0,1,1-3.108,2.781,2.781,0,0,1,2.045-.839,2.723,2.723,0,0,1,2.192,1.021,4.275,4.275,0,0,1,.851,2.82,5.7,5.7,0,0,1-.376,2.294,2.931,2.931,0,0,1-1.1,1.3,2.847,2.847,0,0,1-1.57.462,2.726,2.726,0,0,1-2.207-1.017A4.488,4.488,0,0,1,108.71-3.364Zm1.133,0a3.588,3.588,0,0,0,.545,2.173,1.655,1.655,0,0,0,1.371.722,1.647,1.647,0,0,0,1.365-.726,3.676,3.676,0,0,0,.545-2.212,3.475,3.475,0,0,0-.548-2.123,1.652,1.652,0,0,0-1.362-.722,1.657,1.657,0,0,0-1.371.718A3.571,3.571,0,0,0,109.843-3.364ZM116.218.413V-7.141h.986v1.06a2.507,2.507,0,0,1,.814-.893,2.042,2.042,0,0,1,1.157-.338,1.914,1.914,0,0,1,1.185.349,1.851,1.851,0,0,1,.652.974,2.286,2.286,0,0,1,2.008-1.323,1.83,1.83,0,0,1,1.488.622,2.947,2.947,0,0,1,.52,1.917V.413h-1.1V-4.346a4.041,4.041,0,0,0-.107-1.106A1.051,1.051,0,0,0,123.436-6a1.089,1.089,0,0,0-.661-.206,1.435,1.435,0,0,0-1.139.53,2.588,2.588,0,0,0-.453,1.7V.413h-1.1V-4.5a2.434,2.434,0,0,0-.269-1.28.963.963,0,0,0-.882-.427,1.441,1.441,0,0,0-.86.285,1.592,1.592,0,0,0-.572.832,5.393,5.393,0,0,0-.178,1.579V.413Zm14.318,0V-10.015h3.385a7.055,7.055,0,0,1,1.365.1,2.492,2.492,0,0,1,1.108.487,2.5,2.5,0,0,1,.719,1.006A3.631,3.631,0,0,1,137.387-7a3.516,3.516,0,0,1-.729,2.251,3.191,3.191,0,0,1-2.632.921h-2.3V.413Zm1.188-5.47h2.32a2.218,2.218,0,0,0,1.635-.5,1.928,1.928,0,0,0,.484-1.4,2.108,2.108,0,0,0-.285-1.12,1.353,1.353,0,0,0-.75-.615,4.387,4.387,0,0,0-1.108-.092h-2.3Zm11.61,3.037,1.139.164a3.312,3.312,0,0,1-1,1.8,2.716,2.716,0,0,1-1.861.64,2.77,2.77,0,0,1-2.262-1.021,4.4,4.4,0,0,1-.836-2.863,4.615,4.615,0,0,1,.845-2.959,2.68,2.68,0,0,1,2.192-1.053,2.607,2.607,0,0,1,2.13,1.031,4.532,4.532,0,0,1,.826,2.9q0,.114-.006.341h-4.848a3.186,3.186,0,0,0,.606,1.906,1.692,1.692,0,0,0,1.359.661,1.53,1.53,0,0,0,1.035-.37A2.5,2.5,0,0,0,143.334-2.02Zm-3.618-2.07h3.63a2.833,2.833,0,0,0-.416-1.43,1.607,1.607,0,0,0-1.365-.74,1.631,1.631,0,0,0-1.276.59A2.535,2.535,0,0,0,139.716-4.09Zm5.855.726a4.25,4.25,0,0,1,1-3.108,2.781,2.781,0,0,1,2.045-.839,2.723,2.723,0,0,1,2.192,1.021,4.275,4.275,0,0,1,.851,2.82,5.7,5.7,0,0,1-.376,2.294,2.932,2.932,0,0,1-1.1,1.3,2.847,2.847,0,0,1-1.57.462,2.726,2.726,0,0,1-2.207-1.017A4.488,4.488,0,0,1,145.571-3.364Zm1.133,0a3.588,3.588,0,0,0,.545,2.173,1.655,1.655,0,0,0,1.371.722,1.647,1.647,0,0,0,1.365-.726,3.677,3.677,0,0,0,.545-2.212,3.475,3.475,0,0,0-.548-2.123,1.652,1.652,0,0,0-1.362-.722,1.657,1.657,0,0,0-1.371.718A3.571,3.571,0,0,0,146.7-3.364Zm6.376,6.672V-7.141h1v.982a2.662,2.662,0,0,1,.8-.864,1.958,1.958,0,0,1,1.084-.288,2.318,2.318,0,0,1,1.469.5,3.019,3.019,0,0,1,.961,1.4,5.863,5.863,0,0,1,.324,1.988,5.762,5.762,0,0,1-.358,2.088A3.057,3.057,0,0,1,157.325.089a2.41,2.41,0,0,1-1.436.494,1.843,1.843,0,0,1-.989-.27,2.361,2.361,0,0,1-.719-.683V3.308Zm1-6.629a3.678,3.678,0,0,0,.508,2.155,1.489,1.489,0,0,0,1.23.7,1.525,1.525,0,0,0,1.258-.722,3.835,3.835,0,0,0,.523-2.237,3.736,3.736,0,0,0-.511-2.162,1.478,1.478,0,0,0-1.221-.718,1.532,1.532,0,0,0-1.246.765A3.824,3.824,0,0,0,154.077-3.321ZM160.153.413V-10.015h1.1V.413Zm7.386-2.433,1.139.164a3.312,3.312,0,0,1-1,1.8,2.716,2.716,0,0,1-1.861.64,2.77,2.77,0,0,1-2.262-1.021,4.4,4.4,0,0,1-.836-2.863,4.615,4.615,0,0,1,.845-2.959,2.68,2.68,0,0,1,2.192-1.053,2.607,2.607,0,0,1,2.13,1.031,4.532,4.532,0,0,1,.826,2.9q0,.114-.006.341H163.86a3.186,3.186,0,0,0,.606,1.906,1.692,1.692,0,0,0,1.359.661,1.53,1.53,0,0,0,1.035-.37A2.5,2.5,0,0,0,167.539-2.02Zm-3.618-2.07h3.63a2.833,2.833,0,0,0-.416-1.43,1.607,1.607,0,0,0-1.365-.74,1.631,1.631,0,0,0-1.276.59A2.535,2.535,0,0,0,163.921-4.09ZM176.2-.732,176.36.4a3.545,3.545,0,0,1-.833.114,1.668,1.668,0,0,1-.93-.22,1.183,1.183,0,0,1-.465-.58A5.288,5.288,0,0,1,174-1.8V-6.145h-.808v-1H174V-9.012l1.1-.768v2.639H176.2v1h-1.108v4.417a2.577,2.577,0,0,0,.058.7.516.516,0,0,0,.19.249.65.65,0,0,0,.377.092A3.1,3.1,0,0,0,176.2-.732Zm.793-2.632a4.25,4.25,0,0,1,1-3.108,2.781,2.781,0,0,1,2.045-.839,2.723,2.723,0,0,1,2.192,1.021,4.275,4.275,0,0,1,.851,2.82,5.7,5.7,0,0,1-.376,2.294,2.931,2.931,0,0,1-1.1,1.3,2.847,2.847,0,0,1-1.57.462,2.726,2.726,0,0,1-2.207-1.017A4.488,4.488,0,0,1,176.994-3.364Zm1.133,0a3.588,3.588,0,0,0,.545,2.173,1.655,1.655,0,0,0,1.371.722,1.647,1.647,0,0,0,1.365-.726,3.677,3.677,0,0,0,.545-2.212A3.475,3.475,0,0,0,181.4-5.53a1.652,1.652,0,0,0-1.362-.722,1.657,1.657,0,0,0-1.371.718A3.571,3.571,0,0,0,178.126-3.364ZM188.251.413V-10.015h3.385a7.056,7.056,0,0,1,1.365.1,2.493,2.493,0,0,1,1.108.487,2.5,2.5,0,0,1,.719,1.006A3.631,3.631,0,0,1,195.1-7a3.516,3.516,0,0,1-.728,2.251,3.191,3.191,0,0,1-2.632.921h-2.3V.413Zm1.188-5.47h2.32a2.218,2.218,0,0,0,1.635-.5,1.928,1.928,0,0,0,.484-1.4,2.108,2.108,0,0,0-.285-1.12,1.353,1.353,0,0,0-.75-.615,4.387,4.387,0,0,0-1.108-.092h-2.3Zm11.61,3.037,1.139.164a3.312,3.312,0,0,1-1,1.8,2.716,2.716,0,0,1-1.861.64,2.77,2.77,0,0,1-2.262-1.021,4.4,4.4,0,0,1-.836-2.863,4.615,4.615,0,0,1,.845-2.959,2.68,2.68,0,0,1,2.192-1.053A2.607,2.607,0,0,1,201.4-6.28a4.532,4.532,0,0,1,.826,2.9q0,.114-.006.341h-4.848a3.186,3.186,0,0,0,.606,1.906,1.692,1.692,0,0,0,1.359.661,1.53,1.53,0,0,0,1.035-.37A2.5,2.5,0,0,0,201.049-2.02Zm-3.618-2.07h3.63a2.833,2.833,0,0,0-.416-1.43,1.607,1.607,0,0,0-1.365-.74,1.631,1.631,0,0,0-1.276.59A2.535,2.535,0,0,0,197.431-4.09Zm5.855.726a4.25,4.25,0,0,1,1-3.108,2.781,2.781,0,0,1,2.045-.839,2.723,2.723,0,0,1,2.192,1.021,4.275,4.275,0,0,1,.851,2.82A5.7,5.7,0,0,1,209-1.177a2.932,2.932,0,0,1-1.1,1.3,2.847,2.847,0,0,1-1.57.462,2.726,2.726,0,0,1-2.207-1.017A4.488,4.488,0,0,1,203.286-3.364Zm1.133,0a3.588,3.588,0,0,0,.545,2.173,1.655,1.655,0,0,0,1.371.722,1.647,1.647,0,0,0,1.365-.726,3.677,3.677,0,0,0,.545-2.212A3.475,3.475,0,0,0,207.7-5.53a1.652,1.652,0,0,0-1.362-.722,1.657,1.657,0,0,0-1.371.718A3.571,3.571,0,0,0,204.418-3.364Zm6.376,6.672V-7.141h1v.982a2.662,2.662,0,0,1,.8-.864,1.958,1.958,0,0,1,1.084-.288,2.318,2.318,0,0,1,1.469.5,3.019,3.019,0,0,1,.961,1.4,5.863,5.863,0,0,1,.324,1.988,5.762,5.762,0,0,1-.358,2.088A3.058,3.058,0,0,1,215.04.089,2.41,2.41,0,0,1,213.6.583a1.843,1.843,0,0,1-.989-.27A2.36,2.36,0,0,1,211.9-.37V3.308Zm1-6.629a3.678,3.678,0,0,0,.508,2.155,1.49,1.49,0,0,0,1.23.7,1.525,1.525,0,0,0,1.258-.722,3.835,3.835,0,0,0,.523-2.237A3.736,3.736,0,0,0,214.8-5.59a1.478,1.478,0,0,0-1.221-.718,1.532,1.532,0,0,0-1.246.765A3.824,3.824,0,0,0,211.792-3.321ZM217.868.413V-10.015h1.1V.413Zm7.386-2.433,1.139.164a3.312,3.312,0,0,1-1,1.8,2.716,2.716,0,0,1-1.861.64,2.77,2.77,0,0,1-2.262-1.021,4.4,4.4,0,0,1-.836-2.863,4.615,4.615,0,0,1,.845-2.959,2.68,2.68,0,0,1,2.192-1.053A2.607,2.607,0,0,1,225.6-6.28a4.532,4.532,0,0,1,.826,2.9q0,.114-.006.341h-4.848a3.186,3.186,0,0,0,.606,1.906,1.691,1.691,0,0,0,1.359.661,1.53,1.53,0,0,0,1.035-.37A2.5,2.5,0,0,0,225.253-2.02Zm-3.618-2.07h3.63a2.833,2.833,0,0,0-.416-1.43,1.607,1.607,0,0,0-1.365-.74,1.631,1.631,0,0,0-1.276.59A2.535,2.535,0,0,0,221.635-4.09Zm9.88-4.453v-1.472h1.1v1.472Zm0,8.955V-7.141h1.1V.413Zm2.9,0V-7.141h.992v1.074a2.264,2.264,0,0,1,2.069-1.245,2.39,2.39,0,0,1,1.08.245,1.754,1.754,0,0,1,.738.644,2.7,2.7,0,0,1,.343.946,8.5,8.5,0,0,1,.061,1.245V.413h-1.1V-4.182a3.971,3.971,0,0,0-.129-1.17,1.2,1.2,0,0,0-.456-.619,1.3,1.3,0,0,0-.768-.231,1.647,1.647,0,0,0-1.215.519,2.838,2.838,0,0,0-.511,1.97V.413Zm10.131,0V-.868l4.6-6.679q.49-.711.93-1.238h-5.008v-1.231H251.5v1.231L246.461-1.55l-.545.733h5.73V.413Zm12.6-.932a4.059,4.059,0,0,1-1.178.854,2.985,2.985,0,0,1-1.215.249,2.159,2.159,0,0,1-1.647-.608,2.17,2.17,0,0,1-.575-1.554,2.337,2.337,0,0,1,.217-1.014,2.016,2.016,0,0,1,.569-.736,2.52,2.52,0,0,1,.793-.42,6.882,6.882,0,0,1,.98-.192,8.849,8.849,0,0,0,1.965-.441q.006-.263.006-.334a1.558,1.558,0,0,0-.312-1.1,1.676,1.676,0,0,0-1.255-.434,1.74,1.74,0,0,0-1.148.317,2.018,2.018,0,0,0-.548,1.12l-1.077-.171a3.372,3.372,0,0,1,.484-1.3,2.139,2.139,0,0,1,.973-.761,3.794,3.794,0,0,1,1.475-.267,3.409,3.409,0,0,1,1.353.228,1.785,1.785,0,0,1,.765.573,2.175,2.175,0,0,1,.343.871,8.359,8.359,0,0,1,.055,1.181v1.707a21.039,21.039,0,0,0,.07,2.258,3.161,3.161,0,0,0,.279.907h-1.151A3.061,3.061,0,0,1,257.153-.519Zm-.092-2.859a7.161,7.161,0,0,1-1.8.484,3.686,3.686,0,0,0-.961.256,1.007,1.007,0,0,0-.435.416,1.225,1.225,0,0,0-.153.608,1.172,1.172,0,0,0,.334.854,1.305,1.305,0,0,0,.976.341,2.026,2.026,0,0,0,1.132-.324,1.9,1.9,0,0,0,.728-.886,3.543,3.543,0,0,0,.178-1.28ZM260.009.413V-7.141h.986v1.06a2.507,2.507,0,0,1,.814-.893,2.042,2.042,0,0,1,1.157-.338,1.914,1.914,0,0,1,1.185.349,1.851,1.851,0,0,1,.652.974,2.286,2.286,0,0,1,2.008-1.323,1.83,1.83,0,0,1,1.488.622,2.948,2.948,0,0,1,.52,1.917V.413h-1.1V-4.346a4.04,4.04,0,0,0-.107-1.106A1.051,1.051,0,0,0,267.226-6a1.088,1.088,0,0,0-.661-.206,1.436,1.436,0,0,0-1.139.53,2.588,2.588,0,0,0-.453,1.7V.413h-1.1V-4.5a2.434,2.434,0,0,0-.269-1.28.963.963,0,0,0-.882-.427,1.441,1.441,0,0,0-.86.285,1.592,1.592,0,0,0-.572.832,5.392,5.392,0,0,0-.178,1.579V.413Zm11.585,0h-1.022V-10.015h1.1v3.72a2.09,2.09,0,0,1,1.781-1.017,2.41,2.41,0,0,1,1.136.281,2.4,2.4,0,0,1,.882.79,4.072,4.072,0,0,1,.542,1.227,5.818,5.818,0,0,1,.2,1.536,4.784,4.784,0,0,1-.826,3A2.451,2.451,0,0,1,273.4.583a2.011,2.011,0,0,1-1.806-1.117Zm-.012-3.834a4.466,4.466,0,0,0,.318,1.963,1.571,1.571,0,0,0,1.408.989,1.521,1.521,0,0,0,1.249-.729,3.7,3.7,0,0,0,.526-2.173,3.776,3.776,0,0,0-.505-2.184,1.474,1.474,0,0,0-1.221-.7,1.52,1.52,0,0,0-1.249.729A3.573,3.573,0,0,0,271.582-3.421Zm6.1-5.121v-1.472h1.1v1.472Zm0,8.955V-7.141h1.1V.413Zm7.147-.932a4.059,4.059,0,0,1-1.178.854,2.986,2.986,0,0,1-1.215.249,2.159,2.159,0,0,1-1.647-.608,2.17,2.17,0,0,1-.576-1.554,2.337,2.337,0,0,1,.217-1.014A2.016,2.016,0,0,1,281-3.329a2.52,2.52,0,0,1,.793-.42,6.881,6.881,0,0,1,.979-.192,8.848,8.848,0,0,0,1.965-.441q.006-.263.006-.334a1.558,1.558,0,0,0-.312-1.1,1.675,1.675,0,0,0-1.255-.434,1.739,1.739,0,0,0-1.148.317,2.018,2.018,0,0,0-.548,1.12L280.4-4.986a3.371,3.371,0,0,1,.484-1.3,2.139,2.139,0,0,1,.973-.761,3.794,3.794,0,0,1,1.475-.267,3.409,3.409,0,0,1,1.353.228,1.785,1.785,0,0,1,.765.573,2.175,2.175,0,0,1,.343.871,8.351,8.351,0,0,1,.055,1.181v1.707a21.022,21.022,0,0,0,.07,2.258,3.158,3.158,0,0,0,.279.907h-1.151A3.06,3.06,0,0,1,284.829-.519Zm-.092-2.859a7.16,7.16,0,0,1-1.8.484,3.688,3.688,0,0,0-.961.256,1.007,1.007,0,0,0-.435.416,1.225,1.225,0,0,0-.153.608,1.172,1.172,0,0,0,.334.854,1.305,1.305,0,0,0,.976.341,2.026,2.026,0,0,0,1.133-.324,1.9,1.9,0,0,0,.728-.886,3.543,3.543,0,0,0,.178-1.28Z" transform="translate(72.46 134.319)" fill="#fff"/>
    <path id="DAPP-Zambia" d="M135.466-707.554V-756h22.4q7.316,0,10.96,3.866t3.643,11q0,7.336-3.971,11.467t-12.12,4.131H149v17.977ZM149-735.346h3.3q3.9,0,5.472-1.5a5.086,5.086,0,0,0,1.576-3.85,5.716,5.716,0,0,0-1.368-3.866q-1.368-1.586-5.145-1.586H149ZM91.764-707.554V-756h22.4q7.317,0,10.96,3.866t3.643,11q0,7.336-3.971,11.467t-12.12,4.131H105.3v17.977ZM105.3-735.346h3.3q3.9,0,5.472-1.5a5.086,5.086,0,0,0,1.576-3.85,5.715,5.715,0,0,0-1.368-3.866q-1.368-1.586-5.145-1.586H105.3ZM73.4-707.554l-2.145-8H55.884l-2.115,8H39.975L56.391-756H71.109l16.416,48.446ZM58.8-726.027h9.623L63.6-743.442ZM0-707.554V-756H19.943a21.7,21.7,0,0,1,9.527,1.784,15.819,15.819,0,0,1,6,5.122,22.263,22.263,0,0,1,3.437,7.766,39.962,39.962,0,0,1,1.067,9.385q0,7.766-1.585,12.045a20.151,20.151,0,0,1-4.4,7.171,14.056,14.056,0,0,1-6.045,3.85,28.159,28.159,0,0,1-8,1.322Zm13.424-11h3.289q4.208,0,5.986-1.041a6.888,6.888,0,0,0,2.785-3.635q1.008-2.594,1.008-8.41,0-7.7-2.252-10.542t-7.467-2.842H13.424Z" transform="translate(72.46 825.873)" fill="#fff" stroke="rgba(0,0,0,0)" stroke-width="1"/>
  </g>
</svg>
