<?xml version="1.0" encoding="utf-8"?>
<!-- Generator: Adobe Illustrator 15.1.0, SVG Export Plug-In . SVG Version: 6.00 Build 0)  -->
<!DOCTYPE svg PUBLIC "-//W3C//DTD SVG 1.1//EN" "http://www.w3.org/Graphics/SVG/1.1/DTD/svg11.dtd">
<svg version="1.1" id="Layer_1" xmlns="http://www.w3.org/2000/svg" xmlns:xlink="http://www.w3.org/1999/xlink" x="0px" y="0px"
	 width="300px" height="141.51px" viewBox="0 0 300 141.51" enable-background="new 0 0 300 141.51" xml:space="preserve">
<rect fill="none" width="300" height="141.51"/>
<path fill="#FFFFFF" d="M95.097,70.681c-0.004,0-0.008-0.001-0.011-0.001c0.004,0.016,0.007,0.031,0.011,0.044V70.681z"/>
<path fill="#FFFFFF" d="M95.097,76.786c-0.007,0.027-0.012,0.055-0.019,0.082h0.019V76.786z"/>
<path fill="#FFFFFF" d="M131.813,75.101v0.883c-0.338,0.068-0.542,0.204-0.61,0.204c-1.019,0.544-1.497,1.087-1.497,1.767
	c0,0.34,0.138,0.816,0.478,1.293c0.271,0.477,0.68,0.681,1.154,0.681c0.137,0,0.341,0,0.475-0.069v1.156
	c-0.066,0.068-0.134,0.136-0.269,0.136c-0.748,0.476-1.498,0.749-2.178,0.749c-0.746,0-1.429-0.34-1.972-1.02
	c-0.271-0.34-0.475-0.68-0.613-1.021c-0.134-0.271-0.202-0.611-0.202-0.951c0-0.477,0.202-0.953,0.68-1.428
	c0.544-0.543,1.361-1.02,2.447-1.496c0.478-0.271,1.09-0.476,1.838-0.748L131.813,75.101z M131.813,67.824v2.175
	c-0.202-0.066-0.406-0.066-0.61-0.066c-0.748,0-1.291,0.134-1.497,0.408c-0.272,0.203-0.406,0.544-0.406,0.95
	c0,0.205,0.066,0.409,0.134,0.748l-2.244,1.021c-0.204-0.339-0.271-0.748-0.271-1.021c0-0.474,0.204-0.883,0.543-1.358
	c0.409-0.477,1.089-0.955,1.972-1.495l2.041-1.293C131.611,67.892,131.747,67.824,131.813,67.824 M123.451,76.663l1.292,0.408
	l-1.36,4.419h-1.631c-1.904-0.136-3.402-0.136-4.42-0.136h-2.788h-4.488c-1.564,0.068-2.72,0.068-3.466,0.136v-0.747l12.508-18.631
	h-5.505c-1.904,0-3.265,0.338-3.944,1.086c-0.272,0.276-0.748,0.955-1.427,2.11l-1.225-0.408l1.426-5.439l1.09-0.203
	c0.272,0.609,0.815,1.02,1.495,1.221c0.749,0.206,2.108,0.273,4.012,0.273h5.575c1.495-0.067,2.719-0.067,3.875-0.135v0.544
	c-0.135,0.135-1.156,1.63-2.993,4.418c-1.834,2.787-3.669,5.575-5.506,8.296c-2.176,3.331-3.536,5.371-4.08,6.119
	c0.612,0,1.224,0,1.904,0.066c0.614,0,1.292,0,1.835,0.069c2.586,0,4.286-0.203,5.032-0.543
	C121.41,79.247,122.363,78.294,123.451,76.663 M164.52,80.606v0.884l-2.721-0.067l-3.806,0.067v-0.95c0.68,0,1.156-0.137,1.36-0.479
	c0.2-0.271,0.271-0.881,0.271-1.902v-5.168c0-1.904-0.817-2.925-2.449-2.925c-0.883,0-1.835,0.406-2.923,1.157v7.547
	c0,0.68,0,1.088,0.137,1.225c0.203,0.408,0.68,0.611,1.495,0.611v0.953c-0.476-0.137-1.632-0.205-3.399-0.205
	c-0.137,0-0.612,0.068-1.359,0.068c-0.749,0.067-1.292,0.067-1.701,0.067v-0.95c0.681,0,1.089-0.07,1.293-0.206
	c0.134-0.203,0.271-0.61,0.271-1.29V73.13c0-2.042-0.817-3.063-2.449-3.063c-0.883,0-1.836,0.406-2.923,1.157v7.344
	c0,0.816,0.137,1.36,0.409,1.633c0.203,0.134,0.611,0.203,1.291,0.34v0.95l-3.263-0.067c-0.271,0-0.748,0-1.36,0.067h-2.041v-0.95
	c0.613,0,1.021-0.137,1.293-0.34c0.272-0.272,0.408-0.75,0.408-1.564v-6.731v-0.477c0-0.272-0.069-0.475-0.203-0.61
	c-0.137-0.137-0.546-0.344-1.224-0.68v-0.683l4.283-1.835h0.475l-0.067,2.788c1.02-0.953,2.041-1.563,2.854-1.972
	c0.816-0.409,1.701-0.612,2.518-0.612c1.632,0,2.718,0.883,3.264,2.719c1.088-1.089,2.108-1.836,2.992-2.244
	c0.748-0.34,1.428-0.546,2.108-0.546c1.02,0,1.768,0.274,2.38,0.75c0.747,0.612,1.154,1.563,1.154,2.787v7.208v0.408
	c0,0.543,0.068,0.884,0.205,1.154C163.294,80.403,163.773,80.606,164.52,80.606 M131.813,81.015v-1.156
	c0.614-0.203,1.293-0.678,2.11-1.564v-3.127c-0.885,0.341-1.632,0.613-2.11,0.816v-0.883c0.614-0.205,1.36-0.477,2.11-0.748v-2.448
	c0-0.544-0.206-1.02-0.612-1.361c-0.341-0.271-0.884-0.477-1.498-0.544v-2.175c0.138-0.071,0.274-0.137,0.411-0.137
	c0.134-0.068,0.337-0.068,0.611-0.068c0.477,0,1.156,0.134,1.972,0.408c0.815,0.34,1.361,0.68,1.633,1.02
	c0.406,0.546,0.612,1.497,0.612,2.991l-0.137,6.256c0,0.68,0.204,1.02,0.612,1.02c0.406,0,0.749-0.203,1.019-0.678l0.545,0.271
	c-0.272,0.884-0.68,1.633-1.224,2.176c-0.612,0.477-1.224,0.747-1.972,0.747c-0.612,0-1.021-0.136-1.292-0.34
	c-0.409-0.407-0.612-1.156-0.612-2.243C133.243,79.995,132.56,80.54,131.813,81.015 M173.563,68.095v2.108
	c-0.271-0.066-0.61-0.137-0.883-0.137c-0.611,0-1.293,0.206-2.108,0.614v6.051c0,1.156,0.205,2.109,0.611,2.856
	c0.408,0.68,1.089,1.087,1.973,1.087h0.407v1.155h-0.407c-0.406,0-0.816,0-1.224-0.067c-0.341-0.137-0.884-0.272-1.563-0.545
	c-0.611-0.203-0.953-0.338-1.087-0.338c-0.207,0-0.409,0.135-0.613,0.338c-0.203,0.272-0.342,0.477-0.476,0.612h-1.02
	c0.067-0.204,0.067-0.543,0.067-0.883c0.067-0.407,0.067-0.952,0.067-1.7v-16.66c0-0.543-0.067-0.884-0.204-1.02
	c-0.136-0.203-0.543-0.406-1.29-0.68V60.07l4.69-1.698l0.204,0.068l-0.137,3.4v8.025C171.591,68.913,172.612,68.299,173.563,68.095
	 M185.871,59.596c0.612,0,1.155,0.203,1.563,0.612c0.406,0.409,0.611,0.954,0.611,1.495c0,0.615-0.205,1.157-0.611,1.565
	c-0.408,0.408-0.951,0.612-1.563,0.612c-0.545,0-1.021-0.205-1.429-0.612c-0.476-0.409-0.68-0.951-0.68-1.565
	c0-0.542,0.204-1.086,0.68-1.495C184.85,59.799,185.326,59.596,185.871,59.596 M189.338,80.54v0.95l-3.263-0.136
	c-0.137,0-0.612,0-1.429,0.068c-0.815,0.067-1.495,0.067-2.176,0.067v-0.95c0.747,0,1.223-0.137,1.429-0.409
	c0.203-0.203,0.271-0.747,0.271-1.495v-6.868c0-0.408,0-0.68-0.067-0.815c-0.203-0.205-0.682-0.479-1.428-0.815v-0.683l4.485-1.835
	h0.478v11.424c0,0.611,0.068,0.951,0.203,1.087C188.046,80.403,188.522,80.54,189.338,80.54 M173.563,81.83v-1.155
	c0.818-0.135,1.498-0.613,2.04-1.428c0.613-0.884,0.886-2.176,0.886-3.809c0-1.428-0.272-2.652-0.886-3.671
	c-0.542-0.815-1.222-1.36-2.04-1.564v-2.108c0.272-0.135,0.611-0.135,0.954-0.135c1.426,0,2.649,0.477,3.738,1.495
	c1.225,1.158,1.837,2.79,1.837,4.898c0,1.902-0.544,3.602-1.769,5.031C177.1,80.947,175.467,81.763,173.563,81.83 M196.409,75.101
	v0.883c-0.339,0.068-0.543,0.204-0.68,0.204c-0.951,0.544-1.495,1.087-1.495,1.767c0,0.34,0.203,0.816,0.544,1.293
	c0.271,0.477,0.68,0.681,1.155,0.681c0.137,0,0.272,0,0.476-0.069v1.156l-0.271,0.136c-0.814,0.476-1.496,0.749-2.176,0.749
	c-0.747,0-1.43-0.34-1.972-1.02c-0.272-0.34-0.476-0.68-0.613-1.021c-0.202-0.271-0.271-0.611-0.271-0.951
	c0-0.477,0.271-0.953,0.68-1.428c0.544-0.543,1.359-1.02,2.448-1.496c0.544-0.271,1.156-0.476,1.836-0.748
	C196.206,75.167,196.273,75.167,196.409,75.101 M196.409,67.824v2.175c-0.203-0.066-0.406-0.066-0.68-0.066
	c-0.746,0-1.223,0.134-1.495,0.408c-0.203,0.203-0.34,0.544-0.34,0.95c0,0.205,0.067,0.409,0.067,0.748l-2.176,1.021
	c-0.205-0.339-0.271-0.748-0.271-1.021c0-0.474,0.137-0.883,0.542-1.358c0.409-0.477,1.021-0.955,1.905-1.495l2.108-1.293
	C196.206,67.892,196.273,67.824,196.409,67.824 M244.21,78.907v0.884c-0.815,0.34-1.563,0.612-2.175,0.952
	c-0.34,0.137-1.02,0.475-2.177,1.087h-0.68v-0.34v-2.38c-1.224,1.021-2.245,1.77-2.991,2.107c-0.747,0.408-1.496,0.612-2.176,0.612
	c-1.36,0-2.312-0.407-2.924-1.155c-0.545-0.747-0.885-1.973-0.885-3.674V71.02c0-0.68-0.067-1.087-0.135-1.224
	c-0.203-0.272-0.748-0.341-1.634-0.341v-1.019l5.101-0.612v8.567c0,1.088,0.204,1.835,0.544,2.379c0.34,0.477,0.953,0.75,1.836,0.75
	c0.885,0,1.975-0.477,3.264-1.498v-7.206c0-0.614-0.136-0.952-0.34-1.157c-0.203-0.137-0.747-0.273-1.632-0.273v-0.951l5.303-0.612
	v9.995c0,0.407,0.069,0.748,0.272,0.951c0.137,0.203,0.407,0.34,0.68,0.34S243.94,79.044,244.21,78.907 M226.192,75.575
	c0,1.836-0.68,3.398-1.972,4.625c-1.361,1.223-3.195,1.902-5.441,1.902c-1.767,0-3.534-0.408-5.303-1.223l-0.338-3.943h1.221
	c0.749,2.584,2.38,3.874,4.692,3.874c1.089,0,2.04-0.271,2.788-0.883c0.951-0.681,1.361-1.564,1.361-2.788
	c0-1.02-0.275-1.836-0.953-2.45c-0.543-0.476-1.7-1.156-3.469-2.105c-2.04-0.952-3.468-1.972-4.281-2.924
	c-0.749-0.953-1.156-2.177-1.156-3.536c0-1.632,0.477-2.926,1.495-4.012c1.156-1.36,2.923-2.042,5.304-2.042
	c1.564,0,3.194,0.477,4.76,1.362l0.068,3.808h-1.089c-0.545-2.653-1.904-3.943-4.146-3.943c-1.021,0-1.838,0.271-2.45,0.883
	c-0.68,0.612-1.019,1.428-1.019,2.449c0,0.952,0.544,1.836,1.7,2.719c1.699,0.952,3.398,1.904,5.1,2.79
	c0.884,0.543,1.563,1.153,2.108,2.038C225.852,73.194,226.192,74.283,226.192,75.575 M196.409,81.015v-1.156
	c0.613-0.203,1.293-0.678,2.109-1.564v-3.127c-0.956,0.341-1.633,0.613-2.109,0.816v-0.883c0.613-0.205,1.362-0.477,2.109-0.748
	v-2.448c0-0.544-0.206-1.02-0.613-1.361c-0.406-0.271-0.883-0.477-1.496-0.544v-2.175c0.137-0.071,0.273-0.137,0.341-0.137
	c0.203-0.068,0.409-0.068,0.68-0.068c0.476,0,1.155,0.134,1.974,0.408c0.883,0.34,1.427,0.68,1.699,1.02
	c0.34,0.546,0.543,1.497,0.543,2.991l-0.067,6.256c0,0.68,0.201,1.02,0.611,1.02c0.341,0,0.681-0.203,1.021-0.678l0.543,0.271
	c-0.271,0.884-0.68,1.633-1.291,2.176c-0.544,0.477-1.224,0.747-1.903,0.747c-0.612,0-1.021-0.136-1.292-0.34
	c-0.477-0.407-0.682-1.156-0.682-2.243C197.839,79.995,197.089,80.54,196.409,81.015 M253.457,67.688v1.158
	c-0.34-0.206-0.746-0.273-1.087-0.273c-0.68,0-1.224,0.203-1.632,0.68c-0.476,0.544-0.68,1.361-0.68,2.448
	c0,1.154,0.204,2.107,0.613,2.924c0.543,0.884,1.29,1.359,2.175,1.359c0.201,0,0.407-0.068,0.61-0.137v0.885
	c-0.34,0.068-0.746,0.068-1.087,0.068l-1.294-0.068c-0.949,0.611-1.426,1.156-1.426,1.699c0,0.41,0.205,0.75,0.612,0.883
	c0.409,0.207,0.952,0.342,1.699,0.342c0.476,0,0.815-0.067,1.086-0.067c0.139-0.067,0.274-0.067,0.409-0.067v3.261l-2.448,0.068
	c-1.153,0.545-1.699,1.361-1.699,2.381c0,0.816,0.341,1.429,1.087,2.039c0.75,0.545,1.701,0.883,2.926,0.883h0.135v1.022h-0.68
	c-2.039,0-3.671-0.407-4.827-1.156c-0.951-0.612-1.428-1.429-1.428-2.312c0-0.204,0-0.407,0.067-0.614
	c0.069-0.406,0.271-0.746,0.477-0.882c0.203-0.137,1.157-0.612,2.855-1.361c-1.155-0.271-1.972-0.61-2.515-1.087
	c-0.479-0.545-0.748-1.156-0.748-1.904c0-0.271,0-0.545,0.067-0.814c0.813-0.75,1.972-1.564,3.332-2.517
	c-2.244-0.612-3.399-1.972-3.399-3.876c0-1.224,0.474-2.311,1.359-3.333c1.157-1.156,2.653-1.699,4.623-1.699
	C252.916,67.62,253.187,67.62,253.457,67.688 M253.457,76.731v-0.885c0.409-0.066,0.749-0.339,1.019-0.68
	c0.479-0.543,0.683-1.291,0.683-2.313c0-1.494-0.342-2.65-0.952-3.399c-0.271-0.27-0.477-0.477-0.749-0.609v-1.158
	c1.089,0.066,2.313,0.475,3.468,1.158h3.672v1.835h-2.313c0.072,0.204,0.137,0.475,0.137,0.747c0.069,0.272,0.069,0.477,0.069,0.748
	c0,1.358-0.612,2.449-1.768,3.333C255.838,76.188,254.682,76.594,253.457,76.731 M253.457,89.175v-1.022
	c1.158-0.066,2.11-0.338,2.925-0.883c0.815-0.61,1.154-1.359,1.154-2.242c0-1.498-0.882-2.246-2.65-2.246h-1.429v-3.261h0.203
	c0.613-0.07,1.156-0.137,1.635-0.137c1.767,0,3.061,0.407,3.874,1.223c0.816,0.681,1.156,1.633,1.156,2.923
	c0,1.701-0.68,3.061-2.108,4.08C256.994,88.562,255.362,89.038,253.457,89.175 M266.922,75.101v0.883
	c-0.342,0.068-0.546,0.204-0.612,0.204c-1.02,0.544-1.498,1.087-1.498,1.767c0,0.34,0.139,0.816,0.479,1.293
	c0.272,0.477,0.68,0.681,1.156,0.681c0.134,0,0.339,0,0.476-0.069v1.156c-0.069,0.068-0.137,0.136-0.271,0.136
	c-0.747,0.476-1.497,0.749-2.179,0.749c-0.747,0-1.427-0.34-1.972-1.02c-0.271-0.34-0.475-0.68-0.61-1.021
	c-0.137-0.271-0.206-0.611-0.206-0.951c0-0.477,0.206-0.953,0.683-1.428c0.54-0.543,1.358-1.02,2.445-1.496
	c0.479-0.271,1.092-0.476,1.839-0.748L266.922,75.101z M266.922,67.824v2.175c-0.205-0.066-0.408-0.066-0.612-0.066
	c-0.747,0-1.292,0.134-1.498,0.408c-0.27,0.203-0.406,0.544-0.406,0.95c0,0.205,0.066,0.409,0.137,0.748l-2.245,1.021
	c-0.203-0.339-0.271-0.748-0.271-1.021c0-0.474,0.204-0.883,0.544-1.358c0.407-0.477,1.087-0.955,1.973-1.495l2.038-1.293
	C266.717,67.892,266.853,67.824,266.922,67.824 M286.979,69.455c0,0.544-0.136,0.953-0.407,1.226
	c-0.271,0.34-0.68,0.543-1.292,0.543c-0.273-0.136-0.613-0.271-0.883-0.339c-0.342-0.137-0.614-0.137-0.886-0.137
	c-0.406,0-0.815,0.069-1.225,0.34c-0.474,0.203-0.883,0.612-1.292,1.224v6.391c0,0.611,0.137,1.089,0.477,1.359
	c0.271,0.342,0.815,0.479,1.7,0.479v0.95l-3.739-0.136c0,0-0.544,0-1.563,0.068c-1.091,0.067-1.837,0.067-2.313,0.067v-0.95
	c0.612,0,1.021-0.07,1.222-0.137c0.479-0.203,0.75-0.612,0.75-1.156V71.7v-0.34c0-0.408-0.137-0.68-0.478-0.816
	c-0.065-0.071-0.474-0.203-1.289-0.477v-0.68l5.099-1.972v3.808l1.292-1.63c0.544-0.68,1.087-1.157,1.631-1.498
	c0.614-0.341,1.089-0.475,1.564-0.475c0.477,0,0.885,0.134,1.225,0.475C286.844,68.436,286.979,68.913,286.979,69.455
	 M266.922,81.015v-1.156c0.61-0.203,1.29-0.678,2.175-1.564v-3.127c-0.952,0.341-1.698,0.613-2.175,0.816v-0.883
	c0.61-0.205,1.36-0.477,2.175-0.748v-2.448c0-0.544-0.272-1.02-0.68-1.361c-0.34-0.271-0.885-0.477-1.495-0.544v-2.175
	c0.135-0.071,0.271-0.137,0.407-0.137c0.136-0.068,0.342-0.068,0.612-0.068c0.476,0,1.155,0.134,2.041,0.408
	c0.814,0.34,1.36,0.68,1.63,1.02c0.409,0.546,0.612,1.497,0.612,2.991l-0.134,6.256c0,0.68,0.201,1.02,0.61,1.02
	c0.407,0,0.749-0.203,1.02-0.678l0.545,0.271c-0.272,0.884-0.682,1.633-1.225,2.176c-0.612,0.477-1.224,0.747-1.972,0.747
	c-0.612,0-1.021-0.136-1.293-0.34c-0.476-0.407-0.68-1.156-0.68-2.243C268.349,79.995,267.671,80.54,266.922,81.015"/>
<path fill="#FFFFFF" d="M33.078,80.837c-4.534,0-9.522-1.525-12.975-3.912c2.32,3.402,8.289,5.836,13.535,5.836
	c5.805,0,9.945-2.98,10.928-6.953C42.368,78.823,38.288,80.837,33.078,80.837"/>
<path fill="#FFFFFF" d="M54.311,51.704c-22.915,0-41.535,9.83-41.535,22.068c0,12.175,18.62,22.07,41.535,22.07
	c22.916,0,41.535-9.896,41.535-22.07C95.846,61.534,77.227,51.704,54.311,51.704 M88.402,78.16c-5.5,0-30.906-2.673-30.906-2.673
	H46.479c-0.926,4.994-5.964,8.809-13.133,8.809c-7.957,0-17.312-4.697-17.312-10.49c0-5.792,9.354-10.491,17.312-10.491
	c7.169,0,12.207,3.815,13.133,8.808h11.017c0,0,25.246-2.66,30.906-2.672C94.062,69.439,93.901,78.161,88.402,78.16"/>
<path fill="#FFFFFF" d="M99.688,71.93c0.558,0,1.033,0.196,1.426,0.591c0.393,0.393,0.589,0.871,0.589,1.434
	c0,0.559-0.197,1.035-0.589,1.426c-0.393,0.396-0.868,0.592-1.426,0.592c-0.56,0-1.033-0.195-1.427-0.592
	c-0.393-0.391-0.59-0.867-0.59-1.426c0-0.557,0.197-1.031,0.59-1.428C98.655,72.129,99.128,71.93,99.688,71.93 M98.531,75.14
	c0.155,0.158,0.333,0.278,0.538,0.361c0.203,0.084,0.412,0.126,0.623,0.126c0.221,0,0.428-0.041,0.623-0.122
	c0.192-0.081,0.412-0.245,0.653-0.493c0.242-0.246,0.363-0.601,0.363-1.063c0-0.459-0.121-0.811-0.36-1.055
	c-0.24-0.246-0.459-0.408-0.658-0.491c-0.2-0.083-0.41-0.123-0.629-0.123c-0.213,0-0.418,0.04-0.616,0.123
	c-0.199,0.083-0.375,0.202-0.529,0.36c-0.156,0.16-0.276,0.343-0.363,0.549c-0.085,0.208-0.128,0.422-0.128,0.643
	C98.045,74.408,98.207,74.802,98.531,75.14 M98.958,72.774h0.725c0.15,0,0.261,0.006,0.332,0.025
	c0.07,0.019,0.156,0.064,0.255,0.139c0.099,0.072,0.158,0.156,0.176,0.248c0.021,0.092,0.034,0.157,0.037,0.195
	c0.004,0.037,0.005,0.071,0.005,0.1c0,0.152-0.039,0.279-0.119,0.383c-0.08,0.102-0.195,0.174-0.347,0.217l-0.044,0.012l0.647,0.995
	l-0.547-0.001l-0.649-1.05v1.05h-0.47V72.774z M99.606,73.849c0.22,0,0.341-0.059,0.364-0.174c0.023-0.115,0.036-0.182,0.036-0.201
	c0-0.1-0.033-0.176-0.101-0.232c-0.066-0.058-0.161-0.084-0.283-0.084h-0.195v0.691H99.606z"/>
</svg>
